<!--?xml version="1.0" standalone="no"?-->
              <svg id="sw-js-blob-svg" viewBox="0 0 100 100" xmlns="http://www.w3.org/2000/svg" version="1.1">
                    <defs> 
                        <linearGradient id="sw-gradient" x1="0" x2="1" y1="1" y2="0">
                            <stop id="stop1" stop-color="rgba(248, 117, 55, 1)" offset="0%"></stop>
                            <stop id="stop2" stop-color="rgba(251, 168, 31, 1)" offset="100%"></stop>
                        </linearGradient>
                    </defs>
                <path fill="url(#sw-gradient)" d="M15.8,-25.7C22.5,-20.4,31.1,-19.3,36.4,-14.6C41.8,-9.9,43.7,-1.7,40.1,3.9C36.5,9.6,27.2,12.5,20.7,15.3C14.2,18,10.5,20.6,5.7,24.1C0.9,27.6,-4.9,32.1,-10.9,32.5C-17,32.9,-23.2,29.2,-26.2,23.8C-29.2,18.4,-28.9,11.3,-29.3,4.6C-29.6,-2.1,-30.6,-8.2,-30,-15.4C-29.4,-22.6,-27.2,-30.7,-21.9,-36.6C-16.6,-42.5,-8.3,-46.2,-1.9,-43.3C4.6,-40.4,9.2,-31,15.8,-25.7Z" width="100%" height="100%" transform="translate(50 50)" stroke-width="0" style="transition: all 0.3s ease 0s;"></path>
              </svg>